<?xml version="1.0" encoding="UTF-8" standalone="no"?><svg xmlns="http://www.w3.org/2000/svg" xmlns:xlink="http://www.w3.org/1999/xlink" fill="#151911" height="117.1" preserveAspectRatio="xMidYMid meet" version="1" viewBox="0.0 0.0 300.0 117.1" width="300" zoomAndPan="magnify"><g id="change1_1"><path d="M293.333,43.366h-9.459C277.156,18.43,254.41,0,227.381,0c-26.13,0-48.305,17.208-55.821,40.884 c-1.01-0.561-2.038-1.089-3.087-1.577c-5.397-2.51-11.162-3.943-17.135-4.344c-0.184-0.032-0.374-0.037-0.562-0.053 c-0.152-0.009-0.3-0.036-0.453-0.043c-0.075-0.004-0.145,0.012-0.219,0.011c-0.075,0.002-0.148-0.015-0.223-0.011 c-0.158,0.007-0.312,0.036-0.47,0.044c-0.19,0.016-0.382,0.022-0.568,0.054c-5.966,0.403-11.723,1.835-17.114,4.342 c-1.049,0.488-2.077,1.016-3.087,1.577C121.128,17.208,98.952,0,72.821,0C45.121,0,21.907,19.351,15.848,45.231H6.667 C2.985,45.231,0,48.216,0,51.898s2.985,6.667,6.667,6.667h7.591c0,32.293,26.271,58.564,58.563,58.564 c32.293,0,58.564-26.271,58.564-58.564c0-1.144-0.107-2.261-0.172-3.388c1.93-1.446,3.949-2.762,6.139-3.78 c4.005-1.862,8.294-2.918,12.749-3.172c4.457,0.256,8.746,1.311,12.751,3.172c2.186,1.016,4.207,2.333,6.139,3.781 c-0.065,1.127-0.172,2.244-0.172,3.387c0,32.293,26.271,58.564,58.563,58.564c32.293,0,58.564-26.271,58.564-58.564 c0-0.63-0.075-1.24-0.094-1.865h7.482c3.682,0,6.667-2.985,6.667-6.667S297.015,43.366,293.333,43.366z M72.821,103.796 c-24.94,0-45.229-20.291-45.229-45.231s20.29-45.231,45.229-45.231c23.071,0,42.128,17.375,44.86,39.72 c0.001,0.004,0.001,0.008,0.002,0.012c0.22,1.806,0.369,3.634,0.369,5.499C118.052,83.504,97.76,103.796,72.821,103.796z M227.381,103.796c-24.94,0-45.229-20.291-45.229-45.231c0-1.867,0.149-3.696,0.37-5.505c0-0.002,0.001-0.005,0.001-0.007 c2.733-22.345,21.788-39.719,44.859-39.719c24.94,0,45.231,20.291,45.231,45.231S252.321,103.796,227.381,103.796z" fill="inherit"/></g></svg>